<svg width="80" height="81" viewBox="0 0 80 81" fill="none" xmlns="http://www.w3.org/2000/svg">
<rect y="0.405029" width="80" height="80" rx="40" fill="#E5F7FF"/>
<path d="M53.1949 31.9494C53.0409 31.8605 52.8663 31.8137 52.6886 31.8137C52.5108 31.8137 52.3362 31.8605 52.1822 31.9494L43.5443 36.2329V32.8101C43.5437 32.6375 43.4991 32.4679 43.4146 32.3174C43.33 32.1668 43.2085 32.0404 43.0613 31.9501C42.9142 31.8598 42.7465 31.8086 42.574 31.8014C42.4015 31.7942 42.2301 31.8312 42.0759 31.9089L33.4177 36.2329V28.7595C33.4177 28.4909 33.311 28.2333 33.1211 28.0434C32.9312 27.8535 32.6736 27.7468 32.405 27.7468H26.3291C26.0605 27.7468 25.8029 27.8535 25.613 28.0434C25.4231 28.2333 25.3164 28.4909 25.3164 28.7595V54.0759H53.6708V32.8101C53.6712 32.638 53.6277 32.4687 53.5444 32.3181C53.4611 32.1675 53.3408 32.0406 53.1949 31.9494V31.9494ZM45.5696 52.0506H41.5189V44.962H45.5696V52.0506ZM51.6455 52.0506H47.5949V43.9494C47.5949 43.6808 47.4882 43.4232 47.2983 43.2333C47.1084 43.0434 46.8508 42.9367 46.5822 42.9367H40.5063C40.2377 42.9367 39.9801 43.0434 39.7902 43.2333C39.6003 43.4232 39.4936 43.6808 39.4936 43.9494V52.0506H27.3417V29.7721H31.3924V39.5139L41.5189 34.4506V39.5139L51.6455 34.4506V52.0506Z" fill="#2E697B"/>
</svg>
