<svg width="80" height="81" viewBox="0 0 80 81" fill="none" xmlns="http://www.w3.org/2000/svg">
<rect y="0.0380859" width="80" height="80" rx="40" fill="#E6FFE8"/>
<path fill-rule="evenodd" clip-rule="evenodd" d="M43.9166 22.3572C43.776 22.3731 43.2646 22.4653 42.7802 22.5623C41.1421 22.89 39.5631 23.5466 38.119 24.5003C37.086 25.1825 36.8968 25.5554 37.335 26.0458C37.6783 26.4301 37.9559 26.3819 38.8245 25.7877C40.061 24.9418 41.5212 24.3193 43.0942 23.967C43.7118 23.8288 44.0269 23.8074 45.4506 23.8074C46.8743 23.8074 47.1895 23.8288 47.807 23.967C49.4356 24.3317 51.0508 25.0382 52.3153 25.9391C53.2029 26.5713 54.4089 27.7781 55.0365 28.6618C55.9717 29.9787 56.7124 31.7459 57.0411 33.4446C57.2382 34.4628 57.2202 36.5505 57.005 37.6287C56.1642 41.8422 53.2187 45.2083 49.1949 46.5543C47.8004 47.0208 47.2608 47.0994 45.4506 47.0994C44.0269 47.0994 43.7118 47.078 43.0942 46.9398C39.982 46.243 37.4409 44.5377 35.725 41.9945C33.6415 38.9064 33.1548 35.1108 34.3851 31.5473C34.6287 30.8421 34.6396 30.7734 34.545 30.5469C34.4155 30.2372 34.2759 30.1231 33.9706 30.0775C33.5378 30.0128 33.3044 30.2331 33.0441 30.9527C31.6175 34.8953 32.1536 39.2983 34.4822 42.7635C36.6081 45.9269 39.8218 47.9422 43.6245 48.4967C44.8519 48.6756 46.9129 48.6105 48.1218 48.3544C53.5175 47.2117 57.5014 43.0839 58.4962 37.6053C58.6824 36.5797 58.6825 34.393 58.4964 33.3351C57.4805 27.5604 53.054 23.2371 47.3133 22.4127C46.6431 22.3164 44.5783 22.2827 43.9166 22.3572ZM35.1591 27.3011C34.7664 27.5188 34.6798 28.0115 34.9729 28.3598C35.2147 28.6471 35.5729 28.7213 35.8702 28.5456C36.2367 28.3291 36.3385 27.9536 36.1365 27.5629C35.9507 27.2037 35.5356 27.0925 35.1591 27.3011ZM40.4122 28.0467C39.3364 28.3358 38.3635 29.3174 38.0739 30.4059C37.9388 30.9136 37.9694 31.7722 38.142 32.3124L38.2936 32.7872L38.0958 32.9333C37.3777 33.4638 36.9512 34.0121 36.6709 34.7654C36.5218 35.1659 36.5097 35.3282 36.5062 36.9669C36.5025 38.7124 36.5046 38.7383 36.6687 38.9026C36.831 39.0653 36.8789 39.0701 38.714 39.1057L40.593 39.1422L40.6296 40.3475C40.6497 41.0104 40.6947 41.5972 40.7298 41.6515C40.9166 41.9411 41.1246 41.9545 45.4506 41.9545C50.1005 41.9545 50.0389 41.9606 50.2378 41.4847C50.315 41.2998 50.3447 40.934 50.3447 40.1672V39.1057H52.1765H54.0083L54.2218 38.8922L54.4353 38.6787V37.0814C54.4353 35.3099 54.3769 34.9354 53.9861 34.2022C53.7802 33.8159 53.1777 33.1653 52.7761 32.8958L52.6144 32.7872L52.7699 32.3489C52.9923 31.7224 52.9861 30.7565 52.756 30.1575C52.5426 29.6021 52.2847 29.2245 51.825 28.7947C50.3298 27.3966 47.8957 27.7238 46.7638 29.4749C46.6166 29.7028 46.4422 30.0811 46.3764 30.3156L46.2568 30.7419L45.4568 30.7447L44.6567 30.7475L44.5755 30.4253C44.3053 29.352 43.3952 28.4079 42.303 28.0681C41.771 27.9025 40.9822 27.8936 40.4122 28.0467ZM42.054 29.5269C42.7448 29.8418 43.1905 30.4818 43.2069 31.1822C43.215 31.5297 43.1894 31.5972 42.9479 31.8645C42.8006 32.0276 42.5949 32.329 42.4909 32.5343C42.2889 32.9329 42.0765 33.0697 41.5225 33.1583C40.8266 33.2696 39.9011 32.7324 39.5918 32.0376C39.2887 31.3568 39.4918 30.3655 40.0314 29.8917C40.599 29.3934 41.4316 29.2432 42.054 29.5269ZM50.3853 29.564C50.8582 29.7841 51.2673 30.2611 51.4129 30.7621C51.82 32.1622 50.4796 33.4933 49.0741 33.0848C48.6981 32.9754 48.6578 32.941 48.4483 32.5489C48.3251 32.3184 48.1098 32.0088 47.9697 31.8608C47.7429 31.6211 47.715 31.5481 47.715 31.1934C47.715 29.885 49.1692 28.9976 50.3853 29.564ZM46.0261 32.28C47.005 32.5707 47.5665 33.6542 47.263 34.6671C47.1386 35.0822 46.6264 35.6201 46.1676 35.8175C45.8627 35.9486 45.6944 35.9749 45.3416 35.9467C43.6822 35.8134 42.9681 33.9113 44.1383 32.7413C44.6681 32.2114 45.2863 32.0603 46.0261 32.28ZM40.2326 34.4448C40.5742 34.5698 40.8248 34.603 41.4148 34.6015C42.0008 34.6 42.1635 34.6213 42.1635 34.6996C42.1635 34.7546 42.2268 34.9797 42.3042 35.1998L42.4448 35.5999L42.1295 35.8169C41.6846 36.123 41.2499 36.6408 40.9837 37.1815L40.7556 37.6448H39.3413H37.9269V36.6703C37.9269 35.2404 38.1414 34.6837 38.8855 34.1826L39.2607 33.9299L39.5299 34.1081C39.678 34.2061 39.9942 34.3576 40.2326 34.4448ZM52.2278 34.3375C52.3997 34.4764 52.6293 34.7597 52.7379 34.967C52.9239 35.3218 52.937 35.4112 52.9614 36.4943L52.9872 37.6448H51.5716H50.156L49.9568 37.211C49.7395 36.7374 49.2024 36.1042 48.7554 35.7944L48.4715 35.5977L48.6372 35.1055L48.8028 34.6134L49.4825 34.6101C50.2586 34.6064 50.8014 34.4691 51.2943 34.1517C51.6663 33.9121 51.713 33.9214 52.2278 34.3375ZM43.7899 36.9838C44.8228 37.566 46.0633 37.5622 47.1337 36.9738L47.5474 36.7464L47.8847 36.9785C48.6487 37.5041 48.8285 37.9597 48.8393 39.3979L48.8473 40.4571L45.4689 40.476L42.0905 40.495L42.0909 39.4534C42.0914 38.2979 42.1382 38.0476 42.4445 37.5646C42.6083 37.3064 43.2421 36.7682 43.3825 36.7682C43.3963 36.7682 43.5796 36.8652 43.7899 36.9838ZM31.1701 47.8493C30.1171 47.945 28.4109 48.4065 27.4149 48.865C27.1173 49.0021 26.8695 49.1057 26.8644 49.0954C26.7082 48.7813 26.3764 48.4333 26.072 48.2647L25.6916 48.0539H24.1211C22.3899 48.0539 22.2376 48.0859 21.7763 48.5471C21.2872 49.0363 21.311 48.8048 21.2883 53.3076L21.2676 57.3926L21.4582 57.7823C21.8529 58.5889 22.3078 58.7551 24.1211 58.7551C25.9376 58.7551 26.3891 58.5895 26.7867 57.7769C26.9756 57.3908 26.9853 57.3832 27.2124 57.4437C27.3401 57.4777 29.4827 57.9708 31.9736 58.5395L36.5025 59.5735L37.2694 59.5382C37.7727 59.515 38.2122 59.4472 38.5478 59.341C39.3066 59.1007 48.7553 55.2127 49.0829 55.0059C49.5413 54.7166 50.0985 54.0534 50.2392 53.6298C50.434 53.0433 50.3961 52.4637 50.1272 51.9175C49.8695 51.3941 49.6016 51.1401 49.0305 50.8775C48.3062 50.5447 47.9713 50.5913 44.4378 51.5166C42.7357 51.9623 41.3177 52.3271 41.2867 52.3271C41.2556 52.3271 41.2084 52.2038 41.1817 52.0531C41.0968 51.5734 40.7854 51.0357 40.3806 50.6696C39.9746 50.3024 37.4754 48.9425 36.5276 48.573C34.9785 47.9691 32.9171 47.6906 31.1701 47.8493ZM34.3502 49.4701C35.4385 49.6891 36.1051 49.9441 37.5616 50.6988C39.6036 51.7568 39.6764 51.8158 39.7317 52.4591C39.7841 53.0693 39.3058 53.568 38.6677 53.5686C38.3983 53.5688 38.0414 53.4059 36.3477 52.5097C34.1224 51.3322 33.9857 51.2899 33.6115 51.664C33.3243 51.9512 33.3195 52.3141 33.5989 52.612C33.8111 52.8382 37.3218 54.7234 37.8906 54.9166C38.3647 55.0775 39.0789 55.0613 39.5674 54.8785C39.8089 54.7882 40.1333 54.5796 40.373 54.3605L40.7743 53.9938L44.2264 53.0835C46.1978 52.5637 47.8455 52.1671 48.0678 52.1589C48.4234 52.1457 48.4755 52.165 48.6704 52.383C48.9663 52.7138 48.9621 53.0753 48.6581 53.4442C48.534 53.5948 48.3449 53.7632 48.2381 53.8183C47.7159 54.0878 38.3428 57.883 37.9529 57.9828C37.1079 58.1991 36.9033 58.1663 31.8275 57.002C29.2004 56.3994 27.0322 55.9063 27.0095 55.9063C26.9867 55.9063 26.9767 54.7342 26.9872 53.3015L27.0065 50.6967L27.6273 50.3799C28.6156 49.8759 30.0034 49.4673 31.2797 49.3047C31.8311 49.2344 33.6719 49.3336 34.3502 49.4701ZM25.3677 49.5539C25.5045 49.6271 25.509 49.7467 25.509 53.3742C25.509 56.1893 25.4872 57.1407 25.4213 57.2065C25.3602 57.2677 24.9669 57.2942 24.1211 57.2942C23.2754 57.2942 22.882 57.2677 22.8209 57.2065C22.755 57.1407 22.7333 56.1896 22.7333 53.3753C22.7333 49.887 22.7419 49.6265 22.8611 49.5572C23.0304 49.4585 25.1843 49.4557 25.3677 49.5539Z" fill="#318216"/>
</svg>
