<svg width="80" height="81" viewBox="0 0 80 81" fill="none" xmlns="http://www.w3.org/2000/svg">
<rect y="0.519043" width="80" height="80" rx="40" fill="#F3FFD1"/>
<path fill-rule="evenodd" clip-rule="evenodd" d="M36.6098 26.5753C33.9239 28.0923 30.1482 30.2199 29.8648 30.376C29.7499 30.4393 28.5659 31.1055 27.2336 31.8564C25.9013 32.6073 24.3132 33.5003 23.7045 33.8408C22.5541 34.4842 22.4407 34.5597 22.3432 34.747C22.2626 34.902 22.2541 55.6992 22.3346 55.7797C22.3721 55.8172 22.8605 55.8298 24.2752 55.8298C26.1015 55.8298 26.1672 55.827 26.2089 55.749C26.2383 55.6941 26.2522 52.8692 26.2522 46.9158V38.1634H39.0112H51.7703V46.9465C51.7703 53.7221 51.7818 55.741 51.8205 55.7797C51.8926 55.8518 55.574 55.8518 55.6461 55.7797C55.6848 55.741 55.6962 53.3487 55.696 45.2654C55.6959 35.1813 55.6931 34.7968 55.6191 34.6754C55.563 34.5834 55.2964 34.4107 54.6274 34.0332C54.1241 33.7492 53.5902 33.4466 53.4409 33.3609C53.2916 33.275 53.0567 33.1428 52.9189 33.0671C52.6664 32.9283 49.1312 30.9382 48.4709 30.5631C48.2757 30.4522 48.022 30.3098 47.9071 30.2466C47.7923 30.1834 46.9089 29.6863 45.9442 29.142C44.9794 28.5976 44.0961 28.1004 43.9812 28.037C43.8664 27.9736 43.6502 27.8512 43.5009 27.765C43.3516 27.6788 43.1167 27.5465 42.9789 27.4709C42.8411 27.3954 41.9483 26.8919 40.9951 26.352C39.4114 25.4551 39.242 25.3689 39.0321 25.3536L38.8024 25.3369L36.6098 26.5753ZM28.8207 42.2863C28.6761 42.3236 28.5203 42.4582 28.4499 42.6063C28.3899 42.7328 28.3821 43.0145 28.3822 45.0608C28.3823 47.6112 28.376 47.5471 28.6462 47.7454C28.7617 47.8301 28.8118 47.8321 31.1103 47.8428C33.7294 47.855 33.6422 47.8639 33.842 47.5647L33.9368 47.4228L33.9367 45.0588C33.9365 42.7893 33.9333 42.6895 33.8552 42.5614C33.6736 42.2636 33.803 42.2779 31.224 42.2709C29.9481 42.2675 28.8666 42.2743 28.8207 42.2863ZM36.5889 42.3146C36.4276 42.3872 36.2996 42.5327 36.2397 42.7115C36.173 42.9106 36.1729 47.1981 36.2396 47.3976C36.3046 47.5919 36.4725 47.7626 36.6498 47.8141C36.7458 47.8421 37.6034 47.8528 39.0948 47.8445L41.3918 47.8319L41.5323 47.7317C41.7924 47.5462 41.7886 47.5863 41.7886 45.0542C41.7886 42.8593 41.7849 42.7469 41.7075 42.5951C41.5367 42.2604 41.682 42.2784 39.053 42.2677C37.1632 42.26 36.6901 42.269 36.5889 42.3146ZM44.3909 42.3371C44.2673 42.3936 44.1906 42.4666 44.1299 42.5856C44.0461 42.7497 44.0439 42.8147 44.0439 45.0576V47.3611L44.1375 47.5277C44.3259 47.8628 44.2427 47.8528 46.8272 47.8528C49.0497 47.8528 49.1177 47.8504 49.2905 47.7667C49.4202 47.704 49.4918 47.632 49.5553 47.5008C49.6408 47.3242 49.6422 47.2791 49.6309 45.0005C49.6182 42.4165 49.638 42.5919 49.3319 42.3633C49.2191 42.279 49.1667 42.277 46.8913 42.2671C44.6768 42.2575 44.5576 42.2609 44.3909 42.3371ZM28.7371 50.3152C28.6912 50.3343 28.5972 50.4096 28.5283 50.4823L28.403 50.6147V53.0518V55.489L28.5074 55.6007C28.7283 55.837 28.6438 55.8298 31.1887 55.8295C33.7977 55.8292 33.6661 55.8429 33.8576 55.5524C33.9324 55.439 33.9363 55.3143 33.9365 53.0574C33.9368 50.7482 33.9345 50.6779 33.8526 50.5455C33.6819 50.2692 33.7382 50.2748 31.1532 50.2777C29.8703 50.2792 28.7831 50.296 28.7371 50.3152ZM36.5262 50.3506C36.4354 50.3984 36.3445 50.4969 36.2861 50.6107L36.1921 50.794L36.193 53.0509C36.1939 55.1861 36.1983 55.3173 36.2742 55.4844C36.4381 55.8456 36.3113 55.8295 38.9904 55.8295C41.2715 55.8295 41.3546 55.8267 41.4862 55.7465C41.8011 55.5545 41.7883 55.6685 41.7884 53.0608C41.7886 50.5386 41.7957 50.6211 41.5595 50.4004L41.4478 50.296L39.0601 50.2848C36.8097 50.2744 36.664 50.2781 36.5262 50.3506ZM44.332 50.3699C44.0359 50.5677 44.044 50.4919 44.044 53.0525C44.044 55.613 44.0359 55.5372 44.332 55.735L44.4739 55.8298L46.8378 55.8296C49.5081 55.8295 49.3785 55.8453 49.5551 55.499C49.6379 55.3367 49.6403 55.2667 49.6383 53.0437C49.6361 50.4966 49.6436 50.5665 49.3522 50.3706L49.2103 50.2751H46.8421H44.4739L44.332 50.3699Z" fill="#758000"/>
</svg>
