<svg width="80" height="80" viewBox="0 0 80 80" fill="none" xmlns="http://www.w3.org/2000/svg">
<rect width="80" height="80" rx="40" fill="#FFF1DC"/>
<path fill-rule="evenodd" clip-rule="evenodd" d="M35.8554 19.1714C35.1607 19.3581 34.522 19.8999 34.1817 20.5912C34.0044 20.9514 33.976 21.0737 33.9543 21.5697C33.923 22.2854 34.0095 22.6738 34.298 23.1143C34.9253 24.0718 37.0354 26.2951 37.5675 26.559C37.9617 26.7545 38.3826 26.7646 38.7354 26.5868C39.0399 26.4335 40.6215 24.856 41.3904 23.9388C41.7041 23.5645 42.0367 23.0915 42.1642 22.838C42.3856 22.3981 42.3878 22.3867 42.3878 21.6745C42.3878 20.9625 42.3856 20.9511 42.1694 20.5376C41.8893 20.0018 41.6162 19.6905 41.216 19.4512C40.417 18.9733 39.1577 18.9509 38.3894 19.4011C38.1514 19.5405 38.1493 19.5407 37.9419 19.4293C37.3147 19.0922 36.517 18.9936 35.8554 19.1714ZM40.3266 20.9833C40.5462 21.1397 40.7145 21.5666 40.6636 21.8382C40.6427 21.9492 40.5201 22.1816 40.391 22.3545C40.0871 22.762 39.0795 23.8861 38.5548 24.4033L38.144 24.8082L37.5494 24.1945C36.8721 23.4954 36.3125 22.8525 35.9348 22.3394C35.6391 21.9378 35.6017 21.6879 35.7855 21.3422C35.9531 21.0267 36.2295 20.8658 36.6036 20.8658C36.8921 20.8658 36.9532 20.8926 37.3497 21.193C38.0093 21.6928 38.3512 21.7049 38.8975 21.2482C39.0778 21.0974 39.3058 20.9358 39.4043 20.8889C39.6399 20.7769 40.1033 20.8243 40.3266 20.9833ZM35.864 27.0436C34.8222 27.2697 33.7968 28.0483 33.3773 28.9318L33.1641 29.3807L32.5306 29.4194C32.1823 29.4408 30.5521 29.4584 28.9081 29.4587C25.8253 29.4591 25.0935 29.4972 24.7101 29.6773C24.2597 29.8889 23.9136 30.3223 23.432 31.2781C22.889 32.3556 22.7631 32.7162 22.7992 33.0896C22.8759 33.8833 23.5844 34.5301 24.3773 34.5301C24.5325 34.5301 24.5807 34.5585 24.6052 34.6644C24.6323 34.7814 27.972 56.0451 28.5437 59.7404C28.6605 60.4953 28.7693 61.1733 28.7856 61.2471L28.8152 61.3814L40.5242 61.3795C47.7455 61.3784 52.4045 61.3555 52.6801 61.3197C53.6983 61.1876 54.8423 60.3897 55.5859 59.2929C55.858 58.8918 56.2836 58.0162 56.4852 57.4432C56.7673 56.641 56.8141 56.243 56.7867 54.8774L56.7621 53.6542L56.5438 53.0151C55.8937 51.1121 54.3512 48.3828 52.4551 45.7805C52.1454 45.3553 51.8799 44.9763 51.8653 44.9381C51.8506 44.8999 52.103 44.563 52.4262 44.1895C54.6532 41.6152 55.0481 40.7399 54.2911 40.056C53.9042 39.7065 53.3626 39.5727 52.3331 39.5724L51.4783 39.5722L51.5156 39.3037C51.6188 38.5619 52.2126 34.7263 52.237 34.6438C52.2544 34.5852 52.3902 34.5207 52.59 34.4759C53.2098 34.3372 53.8125 33.6034 53.8139 32.9861C53.8146 32.6769 53.5199 31.8997 53.077 31.0426C52.7171 30.3461 52.3375 29.9302 51.8072 29.651L51.4408 29.4582L48.1375 29.4579C46.3207 29.4578 44.5361 29.4405 44.1718 29.4195L43.5094 29.3813L43.4323 29.1662C43.2313 28.6053 42.6384 27.9057 42.0395 27.5226C41.247 27.0157 40.805 26.9514 38.1512 26.9573C36.7686 26.9604 36.1376 26.9842 35.864 27.0436ZM39.9017 28.7416C40.7453 28.7998 40.9108 28.8563 41.3734 29.2442L41.5524 29.3942L38.3646 29.3964L35.1768 29.3985L35.3096 29.2572C35.5227 29.0303 35.9979 28.8025 36.3723 28.7478C36.8472 28.6783 38.9317 28.6747 39.9017 28.7416ZM51.224 31.3975C51.3777 31.5898 51.905 32.6364 51.905 32.7492C51.905 32.8001 48.4813 32.8095 38.328 32.7864C30.8607 32.7694 24.7369 32.7414 24.7196 32.7241C24.6851 32.6896 25.1017 31.8364 25.3286 31.477L25.4717 31.2503L26.9782 31.2308C27.8068 31.2201 33.5689 31.2129 39.7829 31.2149L51.081 31.2184L51.224 31.3975ZM48.9307 34.5692L50.451 34.6083L50.3981 34.972C50.3227 35.491 49.6443 39.6604 49.6046 39.8488C49.5779 39.9755 49.5055 40.0301 49.2316 40.1301C48.5205 40.3895 48.2311 40.6509 47.9202 41.3145C47.7649 41.6459 47.758 41.7012 47.758 42.6153C47.758 43.1404 47.7714 43.715 47.7879 43.8921L47.8177 44.2141L46.9525 44.8398C45.2209 46.092 43.7568 47.3265 42.4749 48.6151C40.742 50.3571 39.7989 51.7388 39.2857 53.2876C38.5312 55.5644 38.4629 57.8158 39.1059 59.2202C39.188 59.3994 39.2551 59.5696 39.2551 59.5985C39.2551 59.6282 37.3135 59.6509 34.7799 59.6509C32.3185 59.6509 30.3047 59.6374 30.3047 59.6208C30.3047 59.6043 30.1714 58.7517 30.0085 57.7263C29.614 55.2427 27.0333 38.8122 26.6698 36.4694C26.512 35.452 26.3941 34.5995 26.408 34.5749C26.439 34.5199 46.8163 34.5148 48.9307 34.5692ZM37.7634 36.1342C37.445 36.2385 36.9825 36.5083 36.7871 36.7038C36.333 37.1578 35.2518 39.0992 35.2466 39.4695C35.24 39.9548 35.6297 40.318 36.157 40.318C36.5009 40.318 36.7138 40.0858 37.389 38.9739C37.6884 38.4807 37.9858 38.0298 38.0499 37.9718C38.1139 37.9139 38.2599 37.8513 38.3743 37.8327C38.666 37.7854 38.8522 37.9765 39.3714 38.8558L39.7939 39.5716L39.6289 39.621C39.1571 39.7623 38.9568 40.0145 38.9568 40.4672C38.9568 40.841 39.1259 41.1127 39.436 41.2367C39.714 41.3479 41.209 41.6349 41.5417 41.6409C41.8822 41.647 42.0732 41.4275 42.3522 40.7099C42.9201 39.2488 42.9189 38.7545 42.3464 38.4624C42.0524 38.3124 41.7115 38.3347 41.4605 38.5203L41.2974 38.6409L40.8282 37.8587C40.2593 36.9104 39.9189 36.5218 39.4542 36.2908C39.1506 36.1398 39.0294 36.1155 38.5093 36.1014C38.1811 36.0926 37.8454 36.1073 37.7634 36.1342ZM34.1056 40.3131C33.2164 40.4914 33.0268 40.5834 32.8557 40.919C32.635 41.3518 32.7827 41.8524 33.192 42.0588C33.3269 42.1268 33.4467 42.1908 33.4582 42.2009C33.4696 42.2111 33.2718 42.5839 33.0185 43.0294C32.4037 44.1107 32.2629 44.4702 32.2598 44.9669C32.2564 45.5056 32.4024 45.9647 32.7098 46.3823C32.9839 46.7546 33.4822 47.1391 33.8258 47.2433C34.1431 47.3396 36.6643 47.389 36.9712 47.305C37.2398 47.2314 37.4639 46.9943 37.5659 46.6755C37.6221 46.5 37.6254 46.5031 38.2504 47.3319C38.5958 47.7898 38.9901 48.2653 39.1266 48.3883C39.3517 48.5912 39.4063 48.6121 39.7121 48.6121C40.0271 48.6121 40.0641 48.5966 40.2733 48.3766C40.5286 48.1082 40.6005 47.8749 40.519 47.5793L40.4623 47.3741L41.6041 47.3432C43.0537 47.3039 43.2273 47.2551 43.7834 46.7304C44.3307 46.2142 44.5243 45.8002 44.5551 45.0806C44.5757 44.5982 44.5633 44.5299 44.3748 44.094C44.0457 43.3328 43.365 42.1779 43.0419 41.8326C42.7575 41.5287 42.7256 41.5114 42.4489 41.5114C42.1014 41.5114 41.8075 41.6841 41.672 41.968C41.4851 42.3593 41.5684 42.6197 42.3003 43.9338C42.5946 44.4621 42.8353 44.94 42.8353 44.9959C42.8353 45.1505 42.6692 45.4385 42.5402 45.5075C42.4762 45.5418 42.0317 45.569 41.5353 45.569H40.6451L40.6694 45.2855C40.7001 44.9286 40.5501 44.6685 40.2145 44.4973C39.9188 44.3464 39.6967 44.3432 39.4616 44.4865C39.3619 44.5474 38.9065 44.9888 38.4497 45.4676L37.619 46.338L37.4973 46.1232C37.2295 45.6508 36.958 45.5856 35.2086 45.5741C34.7716 45.5713 34.3624 45.5413 34.2993 45.5075C34.1292 45.4165 33.9879 45.1062 34.0323 44.9211C34.0531 44.8344 34.2885 44.369 34.5556 43.887L35.0411 43.0106L35.2398 43.185C35.6106 43.5107 36.0429 43.4985 36.3882 43.153C36.5899 42.9512 36.5996 42.9223 36.5958 42.5396C36.5925 42.2086 36.5413 42.0067 36.3045 41.3921C35.7818 40.0349 35.6981 39.9938 34.1056 40.3131ZM52.4421 41.3674C52.4421 41.4182 51.4968 42.5725 50.8654 43.2929L50.3238 43.9109L49.9691 43.8744C49.7741 43.8544 49.5932 43.8045 49.5673 43.7637C49.5151 43.6815 49.4893 43.0217 49.5132 42.3766C49.5244 42.0728 49.5554 41.9381 49.627 41.8824C49.7544 41.7833 50.3685 41.5923 51.01 41.4521C51.4884 41.3476 52.4421 41.2912 52.4421 41.3674ZM50.2517 45.8243C51.6229 47.524 53.1208 49.844 54.0515 51.7098C54.5997 52.8086 54.7948 53.288 54.9602 53.9422C55.1289 54.609 55.0912 56.0604 54.8888 56.6973C54.4869 57.9613 53.7666 58.9559 52.9301 59.4018C52.6273 59.5632 52.5121 59.5913 52.1536 59.5913H51.7326L52.0502 59.1288C52.8696 57.9356 53.2927 56.6876 53.3733 55.2257C53.4633 53.5963 53.0258 51.3326 52.5533 50.9829C52.336 50.822 51.9127 50.782 51.6834 50.9006C51.3918 51.0514 51.189 51.3337 51.189 51.5889C51.189 51.7114 51.2711 52.1591 51.3714 52.5838C51.5254 53.2356 51.5589 53.5184 51.5865 54.4C51.6247 55.6218 51.5251 56.2636 51.1693 57.0864C50.8265 57.8794 50.5982 58.2074 49.8738 58.9474L49.1853 59.6509H47.0284H44.8715L44.5383 59.2581C43.7976 58.3851 43.6551 57.691 43.9062 56.1782C44.0292 55.4373 44.01 55.2068 43.8069 54.9824C43.5282 54.6744 43.0478 54.6089 42.7099 54.8326C42.2573 55.1324 42.0596 55.8961 42.0596 57.3454C42.0596 58.2196 42.135 58.6129 42.4199 59.225C42.5171 59.4339 42.5966 59.6134 42.5966 59.624C42.5966 59.6572 42.1634 59.5846 41.8507 59.499C40.5845 59.1523 40.1201 57.4977 40.6195 55.1118C40.9089 53.7287 41.3573 52.7 42.1133 51.6851C42.6669 50.9417 44.7892 48.8086 45.8486 47.9307C46.768 47.1689 47.9951 46.2406 48.6341 45.8236L49.0925 45.5245L49.6187 45.6082C50.0276 45.6733 50.1686 45.7214 50.2517 45.8243Z" fill="#824E00"/>
</svg>
